<svg xmlns="http://www.w3.org/2000/svg" version="1.1" xmlns:xlink="http://www.w3.org/1999/xlink" width="2000" height="1500" viewBox="0 0 2000 1500"><rect width="2000" height="1500" x="0" y="0" id="background" stroke="transparent" fill="#ffffff"></rect><svg xml:space="preserve" width="1500" height="1125" data-version="2" data-id="lg_EaB5jAzEnE9IZuYhJT" viewBox="0 0 190 337" x="250" y="187.5"><rect width="100%" height="100%" fill="transparent"></rect><g transform="translate(95 168.5)"><linearGradient id="a" x1="0" x2="-.143" y1="0" y2="0" gradientUnits="objectBoundingBox"><stop offset="0%" stop-color="#0f3054"></stop><stop offset="49.8%" stop-color="#3b8dcb"></stop><stop offset="100%" stop-color="#0f3054"></stop></linearGradient><path fill="url(#a)" d="M346.37 555.17h-37.12v-330h37.12v152.97q11.69-16.15 28.88-24.75 17.19-8.59 36.78-8.59 22 0 40.74 10.83 18.73 10.83 30.42 31.28 11.68 20.45 11.68 49.67v118.59h-37.12V441.74q0-24.41-14.61-43.14-14.61-18.74-41.08-18.74-21.65 0-38.67 15.64t-17.02 45.21z" transform="translate(-402.06 -390.17)"></path></g></svg></svg>